<?xml version="1.0" standalone="no"?><!DOCTYPE svg PUBLIC "-//W3C//DTD SVG 1.1//EN" "http://www.w3.org/Graphics/SVG/1.1/DTD/svg11.dtd"><svg t="1743941035853" class="icon" viewBox="0 0 1024 1024" version="1.1" xmlns="http://www.w3.org/2000/svg" p-id="9137" xmlns:xlink="http://www.w3.org/1999/xlink" width="200" height="200"><path d="M587.946667 182.613333a32 32 0 0 0-45.226667-45.226666l-107.946667 107.946666 107.946667 107.946667a32 32 0 1 0 45.226667-45.226667l-30.72-30.72h178.773333a96 96 0 0 1 96 96v213.333334a32 32 0 0 0 64 0v-213.333334A160 160 0 0 0 736 213.333333h-178.773333l30.72-30.72z" p-id="9138" fill="#707070"></path><path d="M202.666667 405.333333A74.666667 74.666667 0 0 0 128 480v341.333333c0 41.216 33.450667 74.666667 74.666667 74.666667h341.333333a74.666667 74.666667 0 0 0 74.666667-74.666667v-341.333333a74.666667 74.666667 0 0 0-74.666667-74.666667h-341.333333z m-10.666667 74.666667a10.666667 10.666667 0 0 1 10.666667-10.666667h341.333333a10.666667 10.666667 0 0 1 10.666667 10.666667v341.333333a10.666667 10.666667 0 0 1-10.666667 10.666667h-341.333333a10.666667 10.666667 0 0 1-10.666667-10.666667v-341.333333z" p-id="9139" fill="#707070"></path></svg>