<?xml version="1.0" standalone="no"?><!DOCTYPE svg PUBLIC "-//W3C//DTD SVG 1.1//EN" "http://www.w3.org/Graphics/SVG/1.1/DTD/svg11.dtd"><svg t="1743940998754" class="icon" viewBox="0 0 1024 1024" version="1.1" xmlns="http://www.w3.org/2000/svg" p-id="8844" xmlns:xlink="http://www.w3.org/1999/xlink" width="200" height="200"><path d="M841.386667 436.053333a32 32 0 1 1 45.226666 45.226667l-107.946666 107.946667-107.946667-107.946667a32 32 0 1 1 45.226667-45.226667l30.72 30.72V288a96 96 0 0 0-96-96h-213.333334a32 32 0 0 1 0-64h213.333334A160 160 0 0 1 810.666667 288v178.773333l30.72-30.72z" p-id="8845" fill="#707070"></path><path d="M618.666667 821.333333A74.666667 74.666667 0 0 1 544 896h-341.333333A74.666667 74.666667 0 0 1 128 821.333333v-341.333333c0-41.216 33.450667-74.666667 74.666667-74.666667h341.333333c41.216 0 74.666667 33.450667 74.666667 74.666667v341.333333z m-74.666667 10.666667a10.666667 10.666667 0 0 0 10.666667-10.666667v-341.333333a10.666667 10.666667 0 0 0-10.666667-10.666667h-341.333333a10.666667 10.666667 0 0 0-10.666667 10.666667v341.333333c0 5.888 4.778667 10.666667 10.666667 10.666667h341.333333z" p-id="8846" fill="#707070"></path></svg>