<?xml version="1.0" standalone="no"?><!DOCTYPE svg PUBLIC "-//W3C//DTD SVG 1.1//EN" "http://www.w3.org/Graphics/SVG/1.1/DTD/svg11.dtd"><svg t="1711010280440" class="icon" viewBox="0 0 1024 1024" version="1.1" xmlns="http://www.w3.org/2000/svg" p-id="6434" xmlns:xlink="http://www.w3.org/1999/xlink" width="200" height="200"><path d="M736.676597 282.293341c0-119.513978-101.103676-216.368886-225.802746-216.368886-124.722606 0-225.827305 96.854908-225.827305 216.368886 0 4.848425 0 23.835871 0 28.684296 0 3.408633 0 17.018605 0 20.546965 0 124.506688 101.103676 309.454958 225.827305 309.454958 124.69907 0 225.802746-184.948269 225.802746-309.454958 0-3.52836 0-17.139356 0-20.546965C736.676597 306.128189 736.676597 287.141766 736.676597 282.293341z" p-id="6435" fill="#bfbfbf"></path><path d="M889.772414 747.987712c-63.176878-55.759955-191.740976-114.713648-215.096916-125.20356-41.166585 43.446511-99.254561 70.691015-163.800623 70.691015-64.185858 0-121.962749-26.90886-163.081239-69.874417-27.868721 12.577456-151.751193 70.042239-213.320457 124.386962-69.634963 61.449537-70.667479 212.036207-70.667479 212.036207l345.653391 0L614.785479 960.02392l345.653391 0C960.43887 960.02392 959.407378 809.43725 889.772414 747.987712z" p-id="6436" fill="#bfbfbf"></path></svg>